<?xml version="1.0" encoding="utf-8"?>
<!-- Generator: Adobe Illustrator 23.0.1, SVG Export Plug-In . SVG Version: 6.00 Build 0)  -->
<svg version="1.1"
	 id="svg2861" xmlns:cc="http://creativecommons.org/ns#" xmlns:dc="http://purl.org/dc/elements/1.1/" xmlns:rdf="http://www.w3.org/1999/02/22-rdf-syntax-ns#" xmlns:svg="http://www.w3.org/2000/svg"
	 xmlns="http://www.w3.org/2000/svg" xmlns:xlink="http://www.w3.org/1999/xlink" x="0px" y="0px" viewBox="0 0 958.8 565.2"
	 style="enable-background:new 0 0 958.8 565.2;" xml:space="preserve">
<style type="text/css">
	.st0{fill:none;stroke:#000000;stroke-miterlimit:10;}
</style>
<path id="path15" class="st0" d="M631,322.7l51.6,3.7V316H698l2.3-10.1l8.3,2.1h15.2v5.3c4-0.6,7.6,0.2,10.6,2.4
	c4.4-10.4,12.9-17.7,25.4-21.8c11.4,0.1,23-1,34.8-3.5v-16.5l4-3c5.3,1.9,11.5,3.1,18.6,3.6"/>
<path id="path17" class="st0" d="M735.6,343.3l-7.7-5.9h-14.2l-0.2,6l-7-0.3l-14.1,16.1l-10.7-1.1h-4.8l-3.9-1.3h-2.2
	c-0.8,0.2-1.7,0.3-2.5,0.3c-0.9,0-1.5-0.2-2-0.5c-0.5-0.4-0.9-1-1.2-1.9c-0.2-0.8-0.5-1.4-0.9-2l-5.2-8.8l-7.5,5.1v8
	c1.6,0.9,2.4,1.7,2.4,2.2c0,1.3,0.2,2.7,0.6,4.2c2.2,6.2,3.2,13,3,20.4L645,394.9c-5.2,1.6-10.7,0.6-16.7-3l7.7-22.3l1.9-0.3
	l2.6-20.8l3.2-20.9l-4.7-41.1l0.5-3.7l-2.4-23.1l0.5-16.1l0.9-3.3l-0.3-13.5l-2.8-15l-2.2-9.3l-5.3-11l-4.3-7.2l-6.6-2.1
	c-1.2-0.9-2.9-1.5-5.3-2.1c-2.4-0.6-4.1-1.2-5.3-1.9l-1.1-0.7l-1.9-1.9l-10-12.8l0,0l1.2-16.9l-4.4-27.6L584,101l-0.9-1.2l-7-7.2
	l-4.9-3.6l-5.3-2.1l-13.1-3.4l-1-1.4l-44.1,0.3l-35.4,1.4c-4.3,0.1-9,0.2-13.9,0.2c-27,0.3-56.4,1.1-88.2,2.2
	c-2.6,0.1-5.4,0.3-8.2,0.7l-1.6,0.4l-0.9,0.4l-8.1,4.6c-3.2,2.4-7.8,5.1-14.1,8c-8.8,4.2-13.8,6.6-15,7.2l-3.4,2l-1,0.8l-0.7,0.7
	l-1.2,1.5l-8.7,5.7l-7.3,5.6l-9.8,8.3l-8.4,6.3l-6.5-0.5l-21.3,15.5L242,166.7l-1.5,3.3l-2.7,18.1l-7.2,2.9l-18.7-3.8l-38.7-6.9
	l-10.1,28.8L137.7,199l-7,7.3c-1.5,2.6-3,5.1-4.7,7.3c-1.6,2.2-3.1,3.8-4.3,4.9c-1.2,1-2.6,2-4.2,2.9c-1.6,0.9-3.5,1.6-5.5,2.2
	c-2.1,0.5-4,1.1-5.9,1.8c-1.9,0.7-3.6,1.4-5,2.3c-1.4,0.8-2.5,1.6-3.2,2.2c-0.9,0.8-1.9,1.7-3,2.8C82.6,251.1,75.3,274.5,73,303
	l41.8,16.1c1.9,0.8,3.5,1.9,4.7,3.5l6.5,8.7l23.9,9.6l6.5,0.2l-4.4,12.6l1.5,18.9l0.9,0.1l9.1,16.9l21.6,5l15.1-3.8l0.3,0.2l6.5,7
	l-8.7,7.6l1.1,17.1l15.4-0.7l17.9-20.2l1.9-0.6l16,10.2L274,425c26.9,9.4,67.3,23.3,121.1,41.9l-1.6,4.5l0,0.1l4.2,1.6l27.2,2.6
	l3.5,1.6c1-0.1,2.2-0.4,3.6-0.8c1.3-0.3,2.5-0.3,3.6,0l0.8,0.1l0.5,0l0.6-0.3l1.7-1.4l0.2-0.1l4.2-3c3.8-2.5,8.1-3.4,12.8-2.7
	c2,0.2,3.7,1.3,5,3.4c0.3,0.3,0.7,1,1.1,1.9c0.5,0.8,1,1.3,1.6,1.4l0.5,0.1l0.7,0h0.1l1.8,0.9l2.4,0.4l17.5,0.3l2.4-0.9l6.3-3.8
	l27.4-14.2c2.1-1.1,5.5-2.9,9.9-5c3.9-2,6.9-4.1,9.2-6.3c3.7-3.2,7.6-5.8,12.1-7.9l8.8-4.2c2-1,3.8-2.3,5.3-4
	c1.6-1.8,3.4-3.2,5.7-4.3c1.3-0.7,2.5-1.2,3.4-1.6c0.8-0.3,1.6-0.6,2.3-0.8c7.3-1.3,14-4.2,20.2-8.4l1.1-0.9
	c4.6,1.9,8.5,5.3,11.8,10c2.7,3.6,6.3,6.6,10.8,8.9c2.7,1.4,5.5,2.4,8.2,2.9c1.4,0.2,4.2,0.5,8.6,0.9c13.9,1.3,23,1.9,27.1,1.7
	l3.9,0.2c2.2,0.2,4.3,0.6,6.1,1.2l2.8,0.9c1.8,0.7,3.4,1.5,4.8,2.5l1.6,1c1.2,0.8,2.2,1.6,3.2,2.5l8.1,7.7l7.9,1.9
	c4.8,3.4,12.4,4.7,22.9,3.9c11.8,1.9,19.5,3.9,22.9,6.3h14.6l10-6.6c3.8-3.2,4.9-7.5,3.2-12.9l-3.2-8.6l1.7-11.2l7.7-6.7l-2.3-2.2
	l2-14.4l4.6-7.8l10.2-11.3l0.4-8.1h-2.8l-4.7-9.5l-11-13.1l-9.6-4.4l-18.3-4.7L735.6,343.3z"/>
<path id="path125" class="st0" d="M790.7,438.3c0,2.9,0.2,5.7,0.7,8.4c0.3,1.7,0.9,5,1.8,9.8c0.3,2.3,2.6,5.3,6.9,9.1
	c4.2,3.9,6.7,7.1,7.1,9.5c0.6,2.8,3.9,5.5,10.1,8.2v-5.9c-1.5-0.9-2.9-1.8-4-2.8c-1-0.8-1.9-2.2-2.5-4.2c-0.7-2.1-1.7-3.7-2.7-4.8
	c-0.3-0.3-2.3-1.8-6-4.4c-2.7-1.9-4.2-3.5-4.3-4.7c-1.7-10.3-2.6-16.3-2.6-18.2c0-8.8,4.9-16.3,14.9-22.7c2.3-1.5,4.7-2.8,7.2-3.9
	v-4.6c-1.9,0.7-3.6,1.5-5.3,2.3C797.7,416.5,790.7,426.1,790.7,438.3z"/>
<path class="st0" d="M304.8,258.8"/>
<line class="st0" x1="432.1" y1="297.7" x2="435.8" y2="290.2"/>
<path class="st0" d="M430.1,301.7"/>
<polyline class="st0" points="623.2,184.5 610,194.4 599.9,201.6 580.7,204.7 571,206.2 554.1,207.6 530.7,217.6 521.7,223 
	500.9,232.5 490,238.1 427.9,222.8 412.1,220.5 374.2,230.3 385.1,235 398.6,243.7 416.6,251.2 444.9,258 447.9,268 463.9,272.8 
	472.8,282.4 487.3,290.7 501.3,305.7 496.6,273.4 490,238.1 428.3,477.2 428.8,458.4 422.3,447 421.6,427.2 420,411.2 420.1,391 
	421.8,373 407.2,366.2 413.8,344.8 430.1,301.7 437.7,288.3 458.3,230.3 438.5,225.1 439.2,205.7 444.2,182.7 447,166.6 
	467.1,163.6 487.4,164.1 501.5,136.1 507,120.6 504.4,101.5 507.7,82.4 386.1,86.9 373.4,149.7 378.1,167.9 375.7,203.6 
	377.6,209.8 374.2,230.3 395.3,279.9 389,296.6 382.2,311.5 367.7,319.9 345.6,334.6 391.1,359.4 435,378.1 450.8,381.2 
	471.5,370.6 480.2,366.9 492.8,339.6 501.3,305.7 528.6,316.7 557.6,322.7 583,328.2 605.9,331.5 642,336.9 591.4,328.8 
	580.8,299.8 574.6,288.9 562.7,282.4 555.1,261.6 543.8,245.7 531.9,229.4 521.9,216.8 512.1,203.2 505.2,192.3 504.4,173.2 
	500.3,164.5 467.1,163.6 431.8,169 413.8,173.9 395.6,166.1 386.4,163.3 359.5,173.1 334.6,179.9 315.2,184.5 292.2,193.4 
	282.7,211.3 297.3,247.9 299.4,254.9 291,226.4 282.7,211.3 267.4,203.8 239.2,187.6 226.7,205.5 212.7,227.2 197.6,253.5 
	182.8,277.9 167.9,290.7 156.9,307.5 159,332.9 155.3,345.1 269.3,284.2 285.8,299.6 319,332.5 327.8,329.5 337.6,337.8 
	345.6,334.6 370.6,348.6 364.1,356.7 359.6,365.1 345.8,375.2 328.2,397.9 299.8,433.8 "/>
<polyline class="st0" points="601.1,415 616.1,404.1 628.3,391.9 "/>
<line class="st0" x1="501.3" y1="305.7" x2="492.8" y2="339.6"/>
<path class="st0" d="M791.2,515.9c-1.9-1.9-9.3-8-22.2-18.3c-3.7-3-6.4-6.2-8.1-9.7c0-0.1-1-3-2.9-8.7c-0.9-2.7-5.8-4.7-14.5-5.7
	c-2.9-0.4-9.5-1.1-20-2.1c-10.2-1.1-15.6-1.6-16.1-1.6c-1.8,0.6-3.6,1.1-5.6,1.6c-3.9,1.1-7.6,1.6-11.1,1.6
	c-4.3-1.7-7.4-2.5-9.5-2.5c-0.4,0-1.5,0.2-3.3,0.6c-1.9,0.3-4.7,0.5-8.6,0.5c-5,0-8-0.3-8.9-0.9c-1-0.6-5-0.9-5-0.9s-8,0.2-10.4,0.1
	l-19.9-0.6c-4-3.1-10-6.2-18.1-9.2c-9.3-3.4-17.2-7.9-23.5-13.5c-6.3-5.5-10.4-9.2-12.1-11.1c-1.8-1.8-4.1-4.6-7.1-8.3l-76.6-93.8
	l2.1-2l3-0.4l1.1-6.7l3-10.1l2.1-4.2l-2.5-0.6l-6.4,20.5l-1.3,1c-0.5,0.5-0.9,0.8-1.3,1c-0.6,0.2-1,0.1-1.5-0.3l-3.2-3.4h-0.1
	l-3-3.1c-0.7-1.1-1.2-2.2-1.5-3.3c-0.2-1-0.5-3.4-0.6-4.7c0-0.7,0-1.4,0.1-2.1c0.1-1-0.3-1.9-1.2-2.5c-10-7.7-38.2-23.9-38.2-23.9
	l-0.6-0.3c-9.5-4.4-18.7-7.7-28.9-10.7c-1.5-0.4-2.7-0.8-3.5-1.2l-13.6-4.4c-0.6-0.1-1.2-0.4-2-0.7l-35.1-17.4c-1.4-0.7-2.8-1-4.3-1
	l-46.8,1.4c-9,0.8-17,4-24,9.5L236.5,314c-2.3,1.9-4.3,4-6,6.4c-0.3,0.5-0.7,1-1,1.4l-46.2,71.4c-1.9,3.3-4.3,6.1-7.3,8.6
	c-7.4,6.1-14.1,12.9-20.1,20.3c-2.1,2.7-8.6,6-8.6,6l-19.6,7.1c-4.2,1-8.1,0.1-11.6-2.5l-26.7-17.4l-6.1-9.4l-0.6-0.9
	c-0.3-1.2-0.6-2.2-0.9-3.1c-0.3-1.3-2.5-6.2-6.4-14.7c-0.1-0.3-1-3.1-2.8-8.6c-0.2-0.7-0.4-1.2-0.6-1.7c2.9-9,4.4-15.8,4.5-20.3
	c0-2.4,1-6.3,2.6-12c1.7-5.5,2.5-9.5,2.5-11.9c0-1-0.7-5-2-12.3h-4.7c0.7,3.6,1.5,7.6,2.4,12c-5.4,23.3-8.5,36.8-9.1,40.7
	c-0.2,0.6-0.1,1.4-0.3,2.1c-0.1,0.7-0.6,1.1-0.5,2.1c0,3,1.5,8.1,4.7,15.3c1.6,3.8,3.6,8.1,5.8,13.1c0.5,1.5,1.2,4.1,2.1,8h2.1
	l-0.3,7.2l-0.7,0.9l19.6,15.9c1.9,1.8,4.2,3.1,6.7,4.2c1.2,0.5,2.2,0.9,3,1.3c4,1.8,8.2,3.2,12.7,4.2c1.2,0.2,2.3,0.3,3.4,0
	c2.1-0.3,4.1-0.5,6.1-0.5c1.8,0,3.6-0.2,5.4-0.7c16.7-4.1,30.5-12.9,41.3-26.4c1.5-1.8,2.1-3.9,2.1-6.2c-0.1-4.3,0.9-8.3,2.9-12.1
	l44.1-68.1c0.5-0.7,1-1.3,1.5-1.8l10.2-11l2.2-2.4l21.2-22.9c1.7-1.8,2.7-3.9,3.2-6.5c0.4-2.3,1.3-4.5,2.6-6.4l13.1-14.5
	c4.5-5,10.1-7.6,16.9-8l48.7-1.7c1.7-0.1,3.3,0.2,4.9,0.9l31.6,16.2c4.9,2.7,10.1,4.9,15.9,6.5l2.8,1.1v0l5.2,1.3
	c3.3,0.9,6.1,2.7,8.3,5.4c1.8,2.2,11.7,10.2,11.7,10.2c1.1,0.8,2.2,1.5,3.3,2.3c0,0,0,0,0,0c0,0,4,2.6,6.1,3.8l0,0
	c0.1,0,0.2,0.1,0.2,0.1c0.2,0.1,0.4,0.2,0.6,0.3c0.7,0.4,1.5,0.8,2.3,1.2c0.2,0.1,0.5,0.3,0.7,0.4v0c5.6,2.9,12.8,6.3,17.7,8.1
	c6,2.2,11.1,5.6,15.2,10.3l5.1,5l3.3,3.4l31.2,36.8l40.7,50.7c3.1,5.4,6.4,9.6,9.8,12.8c3.3,3.1,7.2,7,11.5,11.6
	c4.3,4.6,18.3,14.7,18.3,14.7c3.2,2.5,7.6,2.4,10.9,4c3.2,1.6,6,3.2,8.3,4.8c2.3,1.6,5.6,6.1,10,13.6c-2.2,6.2-4,18-5.3,35.6
	l4.8-1.3l4.9-37.6c-4.7-4.9-5.2-6.4-1.5-4.5l24.4-0.5c1.8-0.6,3.1-1,4-1.5c0.7,0.2,1.5,0.3,2.4,0.6c4.8,1.1,8.6,1.6,11.4,1.6
	c6.7,0,10.8-0.3,12.4-1c1,0,2.6,0.4,4.7,1.2c2.1,0.8,4.6,1.2,7.5,1.2c2.6,0,5.6-0.5,9-1.5l5.2-1.6c3.6,0,14.6,1.2,33.3,3.5
	c8.8,0.9,13.4,3,13.8,6.2c0.8,5.6,4.6,11.2,11.2,16.8c2,1.7,5.6,4.6,10.9,8.6c4.5,3.5,7.8,6.2,10,8.2c2.8,2.5,5,5,6.7,7.3h5.3
	C797,522.1,794.5,519.1,791.2,515.9z"/>
<path class="st0" d="M453.2,310.9c-3-1.3-7.7-3.6-11.4-5.6v-0.1c-3.6-1.9-6.9-3.9-10.2-6.2c-5.3-3.8-12.5-9.8-17-14.6
	c-1.1-1.2-2.4-2.2-3.9-3l6.1,2.3c1.4,0.6,3.3,1.2,5.5,1.8l3.4,0.8c3.7,1,7.1,2.2,10.1,3.8l6,3.1v0l0.8,0.4c4.4,2.4,7.2,5.9,8.6,10.3
	c0.7,2.1,1.2,4,1.6,5.7l0.6,1.4L453.2,310.9z"/>
<path class="st0" d="M470.4,319.1c-4.9-2.2-9.4-4.6-13.4-7.2c-0.6-0.4-1.2-0.8-1.5-1.4c-0.9-1.2-1.4-2.5-1.7-3.7l-1.1-4.8
	c0-0.1,0-0.2,0.1-0.2c0,0,0.1-0.1,0.3-0.1l2.6,1c6,2.9,11.5,5.9,16.7,9.1c0.5,0.3,1,0.7,1.4,1.2c0.5,0.5,0.9,1.1,1.1,1.9l0.1,0.8
	l0,0v0l0.3,1.8l0,0l0.8,4.2L470.4,319.1z"/>
</svg>
